<?xml version="1.0" standalone="no"?><!DOCTYPE svg PUBLIC "-//W3C//DTD SVG 1.1//EN" "http://www.w3.org/Graphics/SVG/1.1/DTD/svg11.dtd"><svg t="1496049514659" class="icon" style="" viewBox="0 0 1051 1024" version="1.1" xmlns="http://www.w3.org/2000/svg" p-id="1541" xmlns:xlink="http://www.w3.org/1999/xlink" width="205.2734375" height="200"><defs><style type="text/css"></style></defs><path d="M525.473684 10.778947c-285.642105 0-517.389474 202.105263-517.389474 452.715789 0 142.821053 75.452632 269.473684 194.021053 353.010526l0 148.210526c0 43.115789 29.642105 61.978947 70.063158 37.726316l156.294737-94.315789c32.336842 5.389474 64.673684 8.084211 97.010526 8.084211 285.642105 0 517.389474-202.105263 517.389474-452.715789C1042.863158 212.884211 811.115789 10.778947 525.473684 10.778947zM590.147368 649.431579c0 16.168421-13.473684 29.642105-32.336842 29.642105s-32.336842-13.473684-32.336842-29.642105l0-142.821053-150.905263 0 0 142.821053c0 16.168421-13.473684 29.642105-32.336842 29.642105-18.863158 0-32.336842-13.473684-32.336842-29.642105l0-172.463158c0 0 0 0 0-2.694737 0 0 0 0 0-2.694737L309.894737 299.115789c0-16.168421 13.473684-29.642105 32.336842-29.642105 18.863158 0 32.336842 13.473684 32.336842 29.642105l0 142.821053 150.905263 0L525.473684 299.115789c0-16.168421 13.473684-29.642105 32.336842-29.642105 18.863158 0 32.336842 13.473684 32.336842 29.642105L590.147368 649.431579zM741.052632 649.431579c0 16.168421-13.473684 29.642105-32.336842 29.642105-18.863158 0-32.336842-13.473684-32.336842-29.642105l0-220.968421c0-16.168421 13.473684-29.642105 32.336842-29.642105 18.863158 0 32.336842 13.473684 32.336842 29.642105L741.052632 649.431579zM708.715789 334.147368c-18.863158 0-32.336842-13.473684-32.336842-32.336842 0-18.863158 13.473684-32.336842 32.336842-32.336842 18.863158 0 32.336842 13.473684 32.336842 32.336842C741.052632 320.673684 727.578947 334.147368 708.715789 334.147368z" p-id="1542" fill="#2c2c2c"></path></svg>