<?xml version="1.0" standalone="no"?><!DOCTYPE svg PUBLIC "-//W3C//DTD SVG 1.1//EN" "http://www.w3.org/Graphics/SVG/1.1/DTD/svg11.dtd"><svg t="1496049708072" class="icon" style="" viewBox="0 0 1024 1024" version="1.1" xmlns="http://www.w3.org/2000/svg" p-id="2029" xmlns:xlink="http://www.w3.org/1999/xlink" width="200" height="200"><defs><style type="text/css"></style></defs><path d="M464.261 63.892c146.658-9.442 248.813 19.735 331.966 80.476 81.659 59.65 141.391 140.122 160.953 249.477 41.977 234.663-103.092 391.994-255.515 452.678-23.725 9.447-54.39 11.453-80.476 22.131-16.057 6.573-36.572 32.547-52.308 48.285-13.536 13.533-31.793 43.745-54.322 44.26-22.551 0.516-40.238-28.165-56.335-44.26-16.432-16.432-36.95-42.182-50.298-48.285-11.756-5.376-28.276-4.609-40.238-8.048-83.477-23.994-152.757-71.594-205.214-132.785-55.181-64.371-107.042-157.546-96.573-285.691 13.856-169.589 109.502-281.875 239.418-340.012 44.39-19.866 93.921-34.038 158.941-38.226zM315.379 160.462c-108.595 54.598-206.001 168.159-195.155 329.953 6.382 95.175 51.93 168.618 100.595 217.286 41.117 41.116 87.996 70.667 146.869 90.535 19.315 6.518 42.864 7.115 64.381 16.095 12.38 5.168 27.217 25.203 40.238 38.226 9.623 9.622 32.096 38.674 42.252 38.227 9.286-0.409 30.912-28.901 36.213-34.203 11.996-11.996 24.475-29.389 36.215-34.203 5.754-2.359 12.3-0.348 18.107-2.013 5.601-1.604 6.57-7.847 12.070-10.060 11.389-4.577 25.399-4.798 36.215-8.048 142.177-42.698 267.772-170.102 253.499-366.166-6.746-92.697-50.622-167.517-108.643-219.297-81.054-72.338-192.343-107.013-344.035-94.56-53.299 4.375-100.779 19.1-138.822 38.226z" fill="#2c2c2c" p-id="2030"></path><path d="M399.879 287.214v104.619c0 4.812-2.495 31.213 0 34.203 6.21 7.443 70.578 2.013 84.5 2.013h84.501v223.321h-54.322v-84.5c0-15.753 6.521-74.673 0-82.487-4.848-5.809-45.324-2.013-56.335-2.013-7.504 0-48.674-6.39-56.333 0-8.555 7.139-2.013 67.413-2.013 84.5v84.5h-54.321c1.341-120.716-2.683-246.791 2.013-364.156l52.308 0.001zM627.223 315.379h54.323v82.487h-54.323v-82.487zM681.548 428.047v223.321h-54.323c1.343-73.77-2.681-152.902 2.015-223.321h52.308z" fill="#2c2c2c" p-id="2031"></path></svg>